<svg width="362" height="310" viewBox="0 0 362 310" fill="none" xmlns="http://www.w3.org/2000/svg">
<path d="M209.409 154.355C210.706 159.555 208.971 164.435 205.536 165.254C202.1 166.072 198.265 162.521 196.969 157.319C196.422 155.248 196.397 153.077 196.898 150.988L191.693 128.887L202.511 126.678L206.493 148.701C207.921 150.331 208.921 152.27 209.409 154.355Z" fill="#FDADB0"/>
<path d="M165.349 41.5813L166.05 52.9739L144.796 54.053L151.378 39.0432L165.349 41.5813Z" fill="#FDADB0"/>
<path d="M166.592 51.2698C160.895 53.8131 151.784 53.1173 141.457 51.2698L139.844 122.876C139.844 122.876 172.145 129.376 183.251 117.382L177.406 58.8757L166.592 51.2698Z" fill="#E0E1E2"/>
<path d="M147.941 46.8818L132.619 55.9571C126.815 59.395 124.079 66.335 125.974 72.8136L137.816 113.295C137.816 113.295 118.532 146.453 124.798 149.379C138.879 155.952 159.89 154.352 159.89 154.352L155.194 74.9649L147.941 46.8818Z" fill="white"/>
<path d="M165.927 50.9688L183.251 57.7056L187.343 107.729L198.802 148.027C179.394 155.118 181.206 151.813 181.206 151.813L177.991 82.2782L165.927 50.9688Z" fill="white"/>
<path d="M191.235 147.175L191.176 146.901L173.467 64.9183C172.972 62.6276 173.605 60.3315 175.202 58.6183C176.8 56.9049 179.046 56.1158 181.364 56.453C184.222 56.869 186.51 58.9529 187.193 61.7623L206.645 141.791L191.235 147.175Z" fill="white"/>
<path d="M156.127 44.608C165.65 44.608 173.37 36.8808 173.37 27.3489C173.37 17.817 165.65 10.0898 156.127 10.0898C146.604 10.0898 138.884 17.817 138.884 27.3489C138.884 36.8808 146.604 44.608 156.127 44.608Z" fill="#FDADB0"/>
<path d="M164.331 4.9884C168.129 6.32453 170.302 7.08909 172.293 9.00874C175.655 12.2513 176.21 16.5846 176.726 20.6109C177.13 23.7606 177.651 27.8331 175.808 32.486C175.179 34.0738 172.129 41.1483 166.29 42.0424C165.143 42.2179 162.451 42.2641 163.227 41.6907C170.409 36.3838 173.474 33.18 173.222 25.0012C173.066 19.9193 165.308 14.4325 160.701 13.4461C158.761 13.0307 156.177 13.4102 154.324 14.9325C150.453 18.1139 150.618 31.2699 146.535 34.0201C144.856 35.1511 145.975 27.1897 144.792 28.4807C142.457 31.0282 143.955 34.9294 144.374 36.4152C146.364 43.4624 150.115 44.1522 152.059 50.1702C154.157 56.6674 151.516 62.7845 150.89 64.2351C149.801 66.7585 147.931 71.0891 143.66 73.1667C138.238 75.8039 133.965 72.3698 131.444 75.3138C130.035 76.9597 130.797 78.7027 128.252 83.8218C127.422 85.4929 127.006 86.3285 126.639 86.2988C124.898 86.1586 122.081 72.2162 126.638 59.2316C128.55 53.7825 130.424 48.4437 135.446 44.269C138.101 42.0619 140.328 41.2677 140.962 38.6903C141.867 35.0081 138.107 33.4365 137.353 27.6266C136.838 23.6532 136.476 17.9705 137.878 14.3281C139.201 10.8885 140.35 7.9027 143.358 5.19549C144.08 4.54525 149.911 0.125307 156.093 0.000627674C158.939 -0.056688 161.031 3.82754 164.331 4.9884Z" fill="#272727"/>
<path d="M200.766 155.755C224.059 155.755 242.941 136.855 242.941 113.542C242.941 90.228 224.059 71.3285 200.766 71.3285C177.474 71.3285 158.592 90.228 158.592 113.542C158.592 136.855 177.474 155.755 200.766 155.755Z" fill="#FAB411"/>
<path d="M190.095 141.082C192.655 131.839 195.215 122.595 197.775 113.351C198.32 111.383 198.742 109.197 199.99 107.527C200.954 106.236 202.471 105.391 204.077 105.922C207.905 107.188 207.843 112.717 207.775 115.943C207.672 120.812 206.574 125.67 204.553 130.103C204.275 130.71 204.379 131.435 204.996 131.796C205.528 132.108 206.41 131.963 206.689 131.352C208.713 126.914 209.916 122.164 210.196 117.289C210.437 113.083 210.456 107.537 206.814 104.67C205.033 103.269 202.761 102.853 200.674 103.822C198.612 104.779 197.353 106.76 196.561 108.811C195.68 111.093 195.156 113.539 194.504 115.893L192.403 123.477C190.838 129.126 189.274 134.775 187.709 140.424C187.283 141.962 189.669 142.618 190.095 141.082Z" fill="white"/>
<path d="M201.064 128.208C202.648 122.257 203.457 116.102 203.464 109.942C203.466 108.349 200.992 108.347 200.99 109.942C200.984 115.893 200.209 121.8 198.678 127.55C198.268 129.092 200.654 129.749 201.064 128.208Z" fill="white"/>
<path d="M175.632 128.137C177.29 120.136 179.084 112.109 181.386 104.266C183.252 97.9055 186.469 90.6981 193.259 88.3921C196.631 87.2468 200.286 87.4313 203.738 88.0958C207.16 88.7548 210.627 89.7356 213.782 91.2357C216.768 92.6557 219.53 94.6129 221.496 97.3091C223.437 99.9706 224.645 103.059 225.296 106.276C226.808 113.74 225.029 121.366 223.035 128.56C222.77 129.517 222.499 130.473 222.228 131.429C221.791 132.964 224.178 133.62 224.613 132.087C226.816 124.331 229.104 116.228 228.078 108.088C227.634 104.567 226.647 101.109 224.889 98.0103C223.087 94.8351 220.488 92.2397 217.371 90.3533C214.228 88.4507 210.69 87.2396 207.147 86.3306C203.383 85.3651 199.467 84.7708 195.591 85.3104C191.936 85.8191 188.643 87.5535 186.055 90.1723C183.404 92.8552 181.611 96.2075 180.288 99.7111C178.829 103.575 177.876 107.634 176.872 111.634C175.811 115.862 174.821 120.108 173.903 124.37C173.68 125.405 173.462 126.441 173.247 127.479C173.111 128.133 173.437 128.816 174.111 129.002C174.723 129.17 175.496 128.795 175.632 128.137Z" fill="white"/>
<path d="M188.382 102.541C190.311 96.6824 196.523 93.0551 202.538 93.4571C209.204 93.9027 214.983 98.7759 217.323 104.908C218.714 108.552 219.122 112.563 218.538 116.418C218.438 117.079 218.704 117.749 219.402 117.941C219.986 118.102 220.822 117.742 220.923 117.077C222.092 109.37 219.944 100.973 213.885 95.7612C211.043 93.3175 207.563 91.626 203.837 91.1196C200.255 90.6326 196.643 91.2963 193.471 93.042C189.992 94.9569 187.244 98.0957 185.996 101.883C185.497 103.4 187.885 104.05 188.382 102.541Z" fill="white"/>
<path d="M183.118 113.897C182.587 120.249 180.988 126.529 178.4 132.355C178.129 132.965 178.223 133.685 178.844 134.049C179.371 134.357 180.263 134.219 180.536 133.605C183.313 127.352 185.022 120.717 185.592 113.897C185.648 113.23 184.984 112.659 184.355 112.659C183.64 112.659 183.174 113.228 183.118 113.897Z" fill="white"/>
<path d="M213 120.987C212.468 127.339 210.869 133.62 208.281 139.445C208.01 140.056 208.104 140.775 208.725 141.139C209.252 141.447 210.145 141.309 210.417 140.695C213.195 134.442 214.903 127.808 215.473 120.987C215.529 120.32 214.865 119.749 214.237 119.749C213.521 119.749 213.056 120.318 213 120.987Z" fill="white"/>
<path d="M189.343 116.06C190.933 109.746 193.569 103.763 197.144 98.3239C198.022 96.9889 195.881 95.7472 195.008 97.0742C191.325 102.677 188.595 108.899 186.957 115.401C186.568 116.947 188.953 117.606 189.343 116.06Z" fill="white"/>
<path d="M165.168 104.933C170.493 104.372 175.079 106.77 175.41 110.29C175.742 113.809 171.694 117.115 166.367 117.675C164.242 117.929 162.091 117.651 160.094 116.864L137.503 118.945L136.824 107.915L159.167 107.035C160.978 105.847 163.036 105.126 165.168 104.933Z" fill="#FDADB0"/>
<path d="M137.644 56.4804C132.176 55.7095 127.045 59.3083 125.909 64.7174C121.943 83.5887 114.827 123.787 126.004 124.458C140.617 125.336 154.646 121.825 154.646 121.825L151.139 101.64L139.74 100.47L146.445 69.0807C147.718 63.1206 143.674 57.3305 137.644 56.4804Z" fill="white"/>
</svg>
